# xmcd
#
# Track frame offsets: 
#        150
#        13671
#        26072
#        39890
#        54328
#        67784
#        79958
#        93593
#        106350
#        119789
#        132612
#        146310
#        158516
#        170195
#        181639
#        195943
#        209189
#
# Disc length: 2957 seconds
#
# Revision: 0
# Processed by: cddbd v1.5.2PL0 Copyright (c) Steve Scherf et al.
# Submitted via: ExactAudioCopy v1.1
#
DISCID=e90b8b11
DTITLE=Lightnin' Hopkins - The Blues - The Complete Sittin' In With \\
DTITLE=Jax Recordings Vol.1 
DYEAR=1951
DGENRE=Blues
TTITLE0=Hello Central
TTITLE1=Coffee Blues
TTITLE2=Long Way From Texas
TTITLE3=Mad As I Can Be
TTITLE4=New Short-Haired Woman
TTITLE5=Gotta Move
TTITLE6=Everybody's Down On Me
TTITLE7=Freight Train
TTITLE8=Prayin' Ground Blues
TTITLE9=Don't Think I'm Crazy
TTITLE10=Dirty House Blues
TTITLE11=Everything Happens To Me
TTITLE12=Buck Dance Boogie [bonus track]
TTITLE13=I Wonder Why [bonus track]
TTITLE14=I've Been A Badman [bonus track]
TTITLE15=Bald Headded Woman [bonus track]
TTITLE16=New York Boogie [bonus track]
EXTD=
EXTT0=
EXTT1=
EXTT2=
EXTT3=
EXTT4=
EXTT5=
EXTT6=
EXTT7=
EXTT8=
EXTT9=
EXTT10=
EXTT11=
EXTT12=
EXTT13=
EXTT14=
EXTT15=
EXTT16=
PLAYORDER=
